<svg viewBox="0 0 512 512" xmlns="http://www.w3.org/2000/svg"><g id="filled_outline" data-name="filled outline"><path d="m72 104h288v64h-288z" fill="#937057"/><path d="m168 128 8 40h48l8-40.485z" fill="#8dc79d"/><path d="m200 176a8 8 0 0 1 -8-8v-40a8 8 0 0 1 16 0v40a8 8 0 0 1 -8 8z" fill="#85bc94"/><path d="m72 168h288a0 0 0 0 1 0 0v284a36 36 0 0 1 -36 36h-216a36 36 0 0 1 -36-36v-284a0 0 0 0 1 0 0z" fill="#cd9c7a"/><path d="m352 272.464 8 56v7.536h40l1-7.536z" fill="#6b9777"/><path d="m401 328.464 7-56-48 56z" fill="#85bc94"/><path d="m240 88a23.882 23.882 0 0 0 -10.926 2.634 32 32 0 0 0 -58.148 0 24 24 0 1 0 7.378 36.881 31.981 31.981 0 0 0 43.392 0 24 24 0 1 0 18.304-39.515z" fill="#6b9777"/><path d="m286.612 80a8 8 0 0 1 -6.86-3.884l-24-40a8 8 0 0 1 13.72-8.232l9.14 15.234v-19.118a8 8 0 0 1 16 0v48a8 8 0 0 1 -8 8z" fill="#6b9777"/><path d="m286.6 80a8 8 0 0 1 -6.852-12.117l24-40a8 8 0 1 1 13.72 8.232l-24 40a8 8 0 0 1 -6.868 3.885z" fill="#85bc94"/><circle cx="128" cy="216" fill="#937057" r="16"/><circle cx="304" cy="216" fill="#937057" r="16"/><path d="m310.612 168h-48l-6.556-78.671a16 16 0 0 1 15.944-17.329h29.223a16 16 0 0 1 15.944 17.329z" fill="#fd9226"/><path d="m312 112h-17.388a8 8 0 0 1 0-16h17.388a8 8 0 0 1 0 16z" fill="#e08122"/><path d="m310.612 144h-16a8 8 0 0 1 0-16h16a8 8 0 0 1 0 16z" fill="#e08122"/><path d="m216 312a96.108 96.108 0 0 1 -96-96 8 8 0 0 1 16 0 80 80 0 0 0 160 0 8 8 0 0 1 16 0 96.108 96.108 0 0 1 -96 96z" fill="#ac8366"/><rect fill="#fbb540" height="159.536" rx="39" width="112" x="328" y="328.464"/><g fill="#c38325"><path d="m376 354.807h16v16h-16z" transform="matrix(.707 -.707 .707 .707 -144.073 377.781)"/><path d="m376 418.807h16v16h-16z" transform="matrix(.707 -.707 .707 .707 -189.326 396.525)"/><path d="m376 450.807h16v16h-16z" transform="matrix(.707 -.707 .707 .707 -211.953 405.898)"/><path d="m405.657 354.807h16v16h-16z" transform="matrix(.707 -.707 .707 .707 -135.387 398.751)"/><path d="m405.657 450.807h16v16h-16z" transform="matrix(.707 -.707 .707 .707 -203.268 426.868)"/><path d="m346.343 354.807h16v16h-16z" transform="matrix(.707 -.707 .707 .707 -152.758 356.811)"/><path d="m346.343 386.807h16v16h-16z" transform="matrix(.707 -.707 .707 .707 -175.385 366.183)"/><path d="m346.343 418.807h16v16h-16z" transform="matrix(.707 -.707 .707 .707 -198.012 375.555)"/><path d="m346.343 450.807h16v16h-16z" transform="matrix(.707 -.707 .707 .707 -220.639 384.928)"/></g><path d="m190.767 488a13.649 13.649 0 0 1 -12.208-7.545 4.726 4.726 0 0 0 -8.455 0 13.649 13.649 0 0 1 -12.204 7.545 13.648 13.648 0 0 1 -11.574-6.415l-17.811-28.485a56.024 56.024 0 0 1 -.531-58.515 21.79 21.79 0 0 1 18.685-10.585 21.788 21.788 0 0 1 18.131 9.7 11.455 11.455 0 0 0 19.062 0 21.791 21.791 0 0 1 18.132-9.7 21.79 21.79 0 0 1 18.685 10.58 56.021 56.021 0 0 1 -.532 58.515l-17.806 28.49a13.648 13.648 0 0 1 -11.574 6.415z" fill="#dc4d41"/><path d="m132.663 336h22.366a18 18 0 0 1 14.977 8.015l10.657 15.985h-22.363a18 18 0 0 1 -14.977-8.015z" fill="#85bc94"/><path d="m172.663 424a8 8 0 0 1 -8-8v-18.2a98.09 98.09 0 0 1 19.226-58.545 8 8 0 0 1 12.885 9.486 82.2 82.2 0 0 0 -16.111 49.059v18.2a8 8 0 0 1 -8 8z" fill="#6b9777"/><path d="m174.332 423.975a43.8 43.8 0 0 1 -19.578-4.6 8 8 0 0 1 7.155-14.312 27.906 27.906 0 0 0 24.845 0 8 8 0 0 1 7.155 14.312 43.8 43.8 0 0 1 -19.577 4.6z" fill="#c7463b"/><path d="m374.668 428.5-19.428-2.428a231.837 231.837 0 0 1 -83.84-27.387l-13.8-7.667a49.23 49.23 0 0 0 -39.477-3.669l-3.454 1.151 2.2 11a49.232 49.232 0 0 0 34.131 37.5 170.409 170.409 0 0 0 102.85-1.558z" fill="#f9bd25"/><path d="m381.344 428.724a231.849 231.849 0 0 1 -68.8-55.189l-10.212-12.042a49.231 49.231 0 0 0 -35.648-17.353l-3.639-.14-1.819 11.068a49.23 49.23 0 0 0 18.714 47.125 170.4 170.4 0 0 0 96.796 34.807l2.368.092a4.441 4.441 0 0 0 2.24-8.368z" fill="#f0b724"/><path d="m234.056 474.086a174.2 174.2 0 0 0 129.544 2.762l6.569-2.471a43.325 43.325 0 0 0 27.992-43.2l14.5-24.935-24.935-14.5-14.011 32.919-31.895 11.739a124.9 124.9 0 0 1 -92.06-2.287l-3.98-1.694a42.724 42.724 0 0 0 -32.7-.317 8.212 8.212 0 0 0 -4.76 10.091l1.729 5.466a42.719 42.719 0 0 0 24.007 26.427z" fill="#ffc226"/><path d="m409.954 321.326 5.984-47.87a8 8 0 0 0 -14.012-6.2l-21.7 25.314-12.226-13.97v-174.6a8 8 0 0 0 -8-8h-35.36l.5-6.007a24 24 0 0 0 -23.916-25.993h-.482l16.73-27.884a8 8 0 1 0 -13.72-8.232l-9.14 15.233v-19.117a8 8 0 0 0 -16 0v19.118l-9.14-15.234a8 8 0 0 0 -13.72 8.232l16.731 27.884h-.483a23.976 23.976 0 0 0 -23.034 17.288 31.86 31.86 0 0 0 -16.345-.422 39.982 39.982 0 0 0 -65.244 0 31.951 31.951 0 0 0 -35.072 15.134h-60.305a8 8 0 0 0 -8 8v348a44.049 44.049 0 0 0 44 44s190.127.324 194.29.324a181.362 181.362 0 0 0 43.606-5.337 47.008 47.008 0 0 0 21.104 5.013h34a47.053 47.053 0 0 0 47-47v-81.54a47.072 47.072 0 0 0 -38.046-46.134zm-16.016-.866h-16.538l19.365-22.593zm-28.516-10.615-1.69-11.829 5.976 6.829zm-13.422-149.845h-32.693l4-48h28.693zm-169.441 0-4.344-21.716c.186-.128.381-.243.564-.376a39.808 39.808 0 0 0 13.221 5.277v16.815zm25.441-16.816a39.784 39.784 0 0 0 13.221-5.276c.164.119.338.221.5.337l-4.295 21.755h-9.426zm28.929.652c1.017.1 2.039.164 3.071.164a31.818 31.818 0 0 0 12.377-2.492l1.541 18.492h-20.183zm29.185-61.253a7.912 7.912 0 0 1 5.886-2.583h29.223a8 8 0 0 1 7.972 8.664l-.61 7.336h-13.973a8 8 0 0 0 0 16h12.64l-1.334 16h-11.306a8 8 0 0 0 0 16h9.973l-1.334 16h-33.278l-2.618-31.411a31.923 31.923 0 0 0 -3.12-37.451l-.207-2.474a7.915 7.915 0 0 1 2.086-6.081zm-106.114 13.417a15.817 15.817 0 0 1 7.278 1.753 8 8 0 0 0 10.915-3.773 24 24 0 0 1 43.614 0 8 8 0 0 0 10.915 3.773 15.817 15.817 0 0 1 7.278-1.753 16 16 0 1 1 -12.2 26.339 8 8 0 0 0 -5.613-2.809c-.162-.01-.325-.015-.487-.015a8 8 0 0 0 -5.426 2.122 23.982 23.982 0 0 1 -32.54 0 8 8 0 0 0 -11.526.7 16 16 0 1 1 -12.208-26.337zm-32 16a32.036 32.036 0 0 0 32 32c1.011 0 2.014-.062 3.01-.156l3.231 16.156h-86.241v-48zm-48 340v-276h272v88.482a7.944 7.944 0 0 0 -7.919 9.109l7.088 49.62a47.076 47.076 0 0 0 -31.169 44.249v2.452c-.45-.521-.906-1.034-1.351-1.559l-10.217-12.037a57.346 57.346 0 0 0 -41.432-20.17l-3.641-.14a8.025 8.025 0 0 0 -8.2 6.7l-1.82 11.071a57.209 57.209 0 0 0 2.17 27.389 57.336 57.336 0 0 0 -39.353-1.572 29.758 29.758 0 0 0 -34.312 4.263 82.17 82.17 0 0 1 14.933-35.11 8 8 0 0 0 -12.885-9.486c-1.326 1.8-2.571 3.645-3.764 5.514l-3.462-5.193a25.947 25.947 0 0 0 -21.637-11.582h-22.366a8 8 0 0 0 -6.657 12.438l10.657 15.984a25.947 25.947 0 0 0 21.637 11.578h10.951a97.762 97.762 0 0 0 -3.466 14.948 29.778 29.778 0 0 0 -44.657 7.516 63.748 63.748 0 0 0 .607 66.871l14.165 22.665h-27.9a28.032 28.032 0 0 1 -28-28zm287.4 15.153-6.569 2.471c-23.783 10.376-68.616 10.376-68.616 10.376a166.205 166.205 0 0 1 -54.977-13.011 34.688 34.688 0 0 1 -14.438-11.461c-.143-.231-4-6.648-5.069-10.018l-1.731-5.468a.211.211 0 0 1 .122-.258 34.5 34.5 0 0 1 26.573.258l3.98 1.693a132.409 132.409 0 0 0 97.957 2.434l31.9-11.742a8 8 0 0 0 4.6-4.374l10.462-24.581 10.185 5.923-10.479 18.019a8 8 0 0 0 -1.069 4.511 35.149 35.149 0 0 1 -22.831 35.228zm-181.689 9.723a12.727 12.727 0 0 0 -22.766 0 5.648 5.648 0 0 1 -9.842.467l-17.803-28.489a47.813 47.813 0 0 1 -.457-50.158 13.791 13.791 0 0 1 23.3-.554 19.425 19.425 0 0 0 6.519 6.085v2.027a27.334 27.334 0 0 1 -2.754-1.187 8 8 0 0 0 -7.155 14.312 43.995 43.995 0 0 0 39.155 0 8 8 0 0 0 -7.155-14.312 27.584 27.584 0 0 1 -6.091 2.193v-1.519a19.419 19.419 0 0 0 9.856-7.6 13.744 13.744 0 0 1 16.919-5.006l1.588 7.936a41.552 41.552 0 0 0 10.836 21.029 51.276 51.276 0 0 0 -9.716 2.839 16.285 16.285 0 0 0 -9.4 19.922l1.728 5.468a50.782 50.782 0 0 0 4.078 9.418l-11 17.594a5.648 5.648 0 0 1 -9.843-.469zm148.874-46.168a116.441 116.441 0 0 1 -81.646-3.694l-3.98-1.694a51.238 51.238 0 0 0 -9.09-2.9 41.164 41.164 0 0 1 -15.157-24.489l-.784-3.931a41.326 41.326 0 0 1 29.786 4.018l13.8 7.672a238.935 238.935 0 0 0 67.074 25.018zm-117.428 42.265a50.66 50.66 0 0 0 10.237 7.027h-14.629zm130.143-56.153a222.535 222.535 0 0 1 -59.223-18.558c-1.152-.831-2.241-1.634-3.287-2.432a41.148 41.148 0 0 1 -15.668-39.462l.651-3.962a41.326 41.326 0 0 1 26.456 14.261l10.219 12.033a238.926 238.926 0 0 0 40.852 38.12zm-181.586-64.82h-7.414a9.979 9.979 0 0 1 -8.32-4.453l-2.369-3.547h7.418a9.982 9.982 0 0 1 8.321 4.453zm266.286 97a31.036 31.036 0 0 1 -31 31h-23.093a51 51 0 0 0 28.384-46.543l13.337-22.935a8 8 0 0 0 -2.894-10.937l-24.935-14.5a8 8 0 0 0 -11.382 3.783l-10.278 24.148q-6.929-4.355-13.5-9.191l9.018-9.018-11.314-11.314-10.32 10.32q-4.1-3.5-8.023-7.189v-19.164a31.036 31.036 0 0 1 31-31h34a31.036 31.036 0 0 1 31 31z"/><path d="m376 354.807h16v16h-16z" transform="matrix(.707 -.707 .707 .707 -144.073 377.781)"/><path d="m405.657 354.807h16v16h-16z" transform="matrix(.707 -.707 .707 .707 -135.387 398.751)"/><path d="m405.657 450.807h16v16h-16z" transform="matrix(.707 -.707 .707 .707 -203.268 426.868)"/><path d="m346.343 354.807h16v16h-16z" transform="matrix(.707 -.707 .707 .707 -152.758 356.811)"/><path d="m121.552 230.637a7.978 7.978 0 0 0 .018 2.73 96.017 96.017 0 0 0 188.86 0 7.958 7.958 0 0 0 .017-2.731 15.993 15.993 0 1 0 -15.415-1.386 8 8 0 0 0 -.342 1.242 80.021 80.021 0 0 1 -157.38 0 8.043 8.043 0 0 0 -.341-1.243 16.005 16.005 0 1 0 -15.417 1.387z"/></g></svg>