<svg height="512" viewBox="0 0 512 512" width="512" xmlns="http://www.w3.org/2000/svg"><g id="flat"><path d="m392 128h-192v-8l32-64v-8h160z" fill="#6cbae5"/><path d="m232 24h160v32h-160z" fill="#4799cf"/><path d="m317.422 50.908c-1.366-1.774-4.057-5.154-4.057-5.154l-16-16-37.422 34.846 16 18.246c5.879 7.637 19.931 6.678 31.385-2.141s15.972-22.16 10.094-29.797z" fill="#cdcdcd"/><ellipse cx="280.683" cy="48.631" fill="#ebebeb" rx="26.175" ry="17.45" transform="matrix(.792 -.61 .61 .792 28.615 181.332)"/><path d="m200 120h168v368h-168z" fill="#4799cf"/><path d="m200 184h168v160h-168z" fill="#6cbae5"/><path d="m328 264a47.946 47.946 0 1 1 -4.74-20.84 48 48 0 0 1 4.74 20.84z" fill="#ea9d2d"/><path d="m323.26 243.16-19.26 12.84v14.11a9.885 9.885 0 0 1 -18.73 4.42l-5.27-10.53-5.27 10.53a9.885 9.885 0 0 1 -18.73-4.42v-14.11l-19.26-12.84a48.032 48.032 0 0 1 86.52 0z" fill="#f6bb92"/><path d="m88 216h144a0 0 0 0 1 0 0v236a36 36 0 0 1 -36 36h-72a36 36 0 0 1 -36-36v-236a0 0 0 0 1 0 0z" fill="#b3e4e8"/><path d="m232 280v172a35.988 35.988 0 0 1 -32 35.77 33.053 33.053 0 0 1 -4 .23h-72a36 36 0 0 1 -36-36v-172z" fill="#ebebeb"/><path d="m120 368a8 8 0 0 1 -8-8v-48a8 8 0 0 1 16 0v48a8 8 0 0 1 -8 8z" fill="#f9f9f9"/><path d="m120 408a8 8 0 0 1 -8-8v-8a8 8 0 0 1 16 0v8a8 8 0 0 1 -8 8z" fill="#f9f9f9"/><path d="m200 216h32v64h-32z" fill="#aedee2"/><path d="m232 280v172a35.988 35.988 0 0 1 -32 35.77v-207.77z" fill="#e4e4e2"/><path d="m392 56-32 64v368h64v-368z" fill="#428dc5"/><path d="m360 184h64v160h-64z" fill="#4799cf"/></g></svg>