<svg height="512" viewBox="0 0 64 64" width="512" xmlns="http://www.w3.org/2000/svg"><g id="Online_Shop" data-name="Online Shop"><path d="m31 56h2v2h-2z"/><path d="m52.9 14.555-1.9-3.812v-3.743a5.006 5.006 0 0 0 -5-5h-28a5.006 5.006 0 0 0 -5 5v3.722l-1.9 3.835a1 1 0 0 0 -.1.443v3a4.977 4.977 0 0 0 2 3.974v35.026a5.006 5.006 0 0 0 5 5h28a5.006 5.006 0 0 0 5-5v-35.026a4.977 4.977 0 0 0 2-3.974v-3a1.01 1.01 0 0 0 -.1-.445zm-34.9-10.555h28a3 3 0 0 1 3 3v3.022l-34 .02v-3.042a3 3 0 0 1 3-3zm28 56h-28a3 3 0 0 1 -3-3v-3h34v3a3 3 0 0 1 -3 3zm3-8h-34v-29.1a4.962 4.962 0 0 0 5-1.93 4.954 4.954 0 0 0 8 0 4.954 4.954 0 0 0 8 0 4.954 4.954 0 0 0 8 0 4.962 4.962 0 0 0 5 1.93zm2-34a3 3 0 0 1 -6 0h-2a3 3 0 0 1 -6 0h-2a3 3 0 0 1 -6 0h-2a3 3 0 0 1 -6 0h-2a3 3 0 0 1 -6 0v-2.766l1.578-3.192 34.824-.02 1.598 3.213z"/><path d="m28 6h8v2h-8z"/><path d="m37 28h-10a5.006 5.006 0 0 0 -5 5v2a1 1 0 0 0 1 1h1v2h-1a1 1 0 0 0 -1 1v3a2 2 0 0 0 2 2h16a2 2 0 0 0 2-2v-3a1 1 0 0 0 -1-1h-1v-2h1a1 1 0 0 0 1-1v-2a5.006 5.006 0 0 0 -5-5zm3 14h-16v-2h16zm-2-4h-12v-2h12zm2-4h-16v-1a3 3 0 0 1 3-3v2h2v-2h2v2h2v-2h2v2h2v-2a3 3 0 0 1 3 3z"/></g></svg>