<svg height="512" viewBox="0 0 512 512" width="512" xmlns="http://www.w3.org/2000/svg"><g id="flat"><path d="m232.38 260.168-86.793 41.024-54.894-116.137a88.834 88.834 0 0 1 4.178-83.731 15.218 15.218 0 0 1 15.265-7.215 88.835 88.835 0 0 1 67.35 49.922z" fill="#cd9c7a"/><path d="m112.987 165.33a8 8 0 0 1 -3.424-15.234l28.937-13.675a8 8 0 1 1 6.837 14.465l-28.937 13.675a7.965 7.965 0 0 1 -3.413.769z" fill="#bd9070"/><path d="m126.662 194.261a8 8 0 0 1 -3.424-15.235l28.931-13.674a8 8 0 1 1 6.837 14.464l-28.931 13.675a7.951 7.951 0 0 1 -3.413.77z" fill="#bd9070"/><rect fill="#2e92c9" height="48" rx="24" width="416" x="48" y="248"/><path d="m72 296h368a0 0 0 0 1 0 0v160a32 32 0 0 1 -32 32h-304a32 32 0 0 1 -32-32v-160a0 0 0 0 1 0 0z" fill="#4799cf"/><rect fill="#277baa" height="32" rx="16" width="272" x="120" y="424"/><rect fill="#277baa" height="32" rx="16" width="272" x="120" y="360"/><path d="m288 98.953v-42.953h-48v42.953a60 60 0 0 1 -13.148 37.482l-8.334 10.417a48 48 0 0 0 -10.518 29.985v71.163h112v-71.163a48 48 0 0 0 -10.518-29.985l-8.334-10.417a60 60 0 0 1 -13.148-37.482z" fill="#6b9777"/><path d="m296 56h-64v-22a10 10 0 0 1 10-10h44a10 10 0 0 1 10 10z" fill="#fbb540"/><path d="m208 200h64v48h-64z" fill="#fbb540"/><path d="m304 176h96v72h-96z" fill="#ebebeb"/><path d="m400 176h-96l16-40h96z" fill="#d9d9d9"/><path d="m416 136-16 40v72h32v-72z" fill="#8fc5bc"/><path d="m320 104h96v32h-96z" fill="#ebebeb"/><rect fill="#4799cf" height="256" rx="24" transform="matrix(.5 -.866 .866 .5 -107.559 253.702)" width="48" x="141.933" y="92"/><path d="m72 296h368v16h-368z" fill="#3a7eaa"/><rect fill="#277baa" height="32" rx="16" width="272" x="120" y="296"/><path d="m240 56h48v16h-48z" fill="#5e8569"/></g></svg>